<svg width="28" height="28" viewBox="0 0 28 28" fill="none" xmlns="http://www.w3.org/2000/svg">
<path d="M20 14C20 17.3138 17.3138 20 14 20C10.6862 20 8 17.3138 8 14C8 10.6862 10.6862 8 14 8C17.3138 8 20 10.6862 20 14Z" fill="white"/>
<path d="M27.3125 3.92843C27.0389 3.18694 26.6023 2.51579 26.0351 1.9649C25.4842 1.39766 24.8135 0.96112 24.0716 0.687487C23.4698 0.453787 22.5659 0.175615 20.901 0.0998331C19.0999 0.0176977 18.5599 0 14.0002 0C9.44012 0 8.90012 0.0172439 7.09949 0.0993793C5.43455 0.175615 4.53015 0.453787 3.92889 0.687487C3.18694 0.96112 2.51579 1.39766 1.96535 1.9649C1.39812 2.51579 0.961574 3.18649 0.687487 3.92843C0.453787 4.53015 0.175615 5.43455 0.0998331 7.09949C0.0176977 8.90012 0 9.44012 0 14.0002C0 18.5599 0.0176977 19.0999 0.0998331 20.901C0.175615 22.5659 0.453787 23.4698 0.687487 24.0716C0.961574 24.8135 1.39766 25.4842 1.9649 26.0351C2.51579 26.6023 3.18649 27.0389 3.92843 27.3125C4.53015 27.5467 5.43455 27.8248 7.09949 27.9006C8.90012 27.9828 9.43967 28 13.9998 28C18.5603 28 19.1003 27.9828 20.9005 27.9006C22.5655 27.8248 23.4698 27.5467 24.0716 27.3125C25.5609 26.738 26.738 25.5609 27.3125 24.0716C27.5462 23.4698 27.8244 22.5659 27.9006 20.901C27.9828 19.0999 28 18.5599 28 14.0002C28 9.44012 27.9828 8.90012 27.9006 7.09949C27.8248 5.43455 27.5467 4.53015 27.3125 3.92843ZM14.0002 22.7687C9.15696 22.7687 5.2308 18.843 5.2308 13.9998C5.2308 9.15651 9.15696 5.2308 14.0002 5.2308C18.843 5.2308 22.7692 9.15651 22.7692 13.9998C22.7692 18.843 18.843 22.7687 14.0002 22.7687ZM23.1159 6.93341C21.9841 6.93341 21.0666 6.01585 21.0666 4.88411C21.0666 3.75236 21.9841 2.83481 23.1159 2.83481C24.2476 2.83481 25.1652 3.75236 25.1652 4.88411C25.1647 6.01585 24.2476 6.93341 23.1159 6.93341Z" fill="white"/>
</svg>
