<svg width="26" height="21" viewBox="0 0 26 21" fill="none" xmlns="http://www.w3.org/2000/svg">
<path d="M23.3285 5.23708C24.3858 4.49077 25.2753 3.55923 26 2.48662V2.48554C25.0326 2.90662 24.0034 3.18662 22.9288 3.32231C24.0338 2.66646 24.8777 1.63585 25.2742 0.394154C24.2439 1.00477 23.1064 1.43554 21.8942 1.67677C20.9159 0.640769 19.5217 0 18.0007 0C15.0497 0 12.6739 2.38108 12.6739 5.29954C12.6739 5.71954 12.7097 6.12338 12.7974 6.50785C8.36658 6.29246 4.44492 4.18169 1.81025 0.964923C1.35092 1.75862 1.08008 2.66646 1.08008 3.64323C1.08008 5.47831 2.03017 7.10446 3.44825 8.04677C2.59133 8.03062 1.75175 7.78292 1.04 7.39415V7.45231C1.04 10.0272 2.88708 12.166 5.3105 12.6592C4.87608 12.7777 4.40375 12.8337 3.913 12.8337C3.57175 12.8337 3.22725 12.8143 2.90442 12.7432C3.5945 14.8411 5.55533 16.3843 7.8845 16.4349C6.071 17.8446 3.76783 18.6943 1.27508 18.6943C0.8385 18.6943 0.41925 18.6749 0 18.6222C2.36167 20.1352 5.15883 21 8.177 21C17.5836 21 23.7142 13.1988 23.3285 5.23708Z" fill="white"/>
</svg>
